<?xml version="1.0" standalone="no"?>
<!DOCTYPE svg PUBLIC "-//W3C//DTD SVG 20010904//EN"
 "http://www.w3.org/TR/2001/REC-SVG-20010904/DTD/svg10.dtd">
<svg version="1.0" xmlns="http://www.w3.org/2000/svg"
 width="320.000000pt" height="198.000000pt" viewBox="0 0 320.000000 198.000000"
 preserveAspectRatio="xMidYMid meet">

<g transform="translate(0.000000,198.000000) scale(0.100000,-0.100000)"
fill="#000000" stroke="none">
<path d="M635 1351 c-63 -11 -149 -55 -195 -101 -23 -23 -56 -72 -73 -108 -26
-56 -31 -78 -31 -147 -1 -81 26 -181 45 -170 5 4 6 0 4 -8 -15 -37 110 -148
200 -177 67 -22 181 -16 246 13 89 39 193 147 173 178 -4 7 -3 9 4 6 17 -11
42 81 42 154 0 222 -201 396 -415 360z m240 -225 l35 -15 0 -117 0 -116 -27 7
c-69 17 -92 15 -187 -14 -54 -17 -111 -31 -127 -31 -32 0 -81 17 -90 31 -3 6
-7 60 -8 121 l-2 110 23 -7 c61 -20 123 -16 203 14 90 34 130 37 180 17z"/>
<path d="M1200 990 l0 -180 88 0 c104 0 143 16 186 77 49 71 36 179 -28 237
-38 33 -83 46 -166 46 l-80 0 0 -180z m173 99 c39 -22 56 -52 57 -101 0 -39
-5 -51 -31 -77 -26 -26 -38 -31 -80 -31 l-49 0 0 110 0 110 41 0 c22 0 50 -5
62 -11z"/>
<path d="M1733 1149 c-65 -32 -83 -80 -83 -226 l0 -118 35 0 c35 0 35 1 35 43
l0 43 83 -3 82 -3 3 -41 c3 -41 4 -42 38 -42 l34 0 0 122 c0 109 -3 128 -23
167 -40 76 -121 99 -204 58z m110 -60 c30 -14 47 -48 47 -94 l0 -35 -85 0 -85
0 0 41 c0 31 6 47 29 70 31 31 55 36 94 18z"/>
<path d="M2194 1156 c-39 -17 -77 -65 -71 -88 3 -10 1 -16 -4 -12 -5 3 -10
-35 -11 -88 -1 -51 -2 -108 -3 -125 -2 -32 -1 -33 36 -33 l39 0 0 120 c0 118
1 122 26 145 15 14 39 25 54 25 15 0 39 -11 54 -25 25 -23 26 -27 26 -145 l0
-120 35 0 35 0 0 123 c0 134 -11 173 -62 210 -34 25 -113 32 -154 13z"/>
<path d="M2660 1162 c-82 -40 -100 -83 -100 -237 0 -107 1 -115 19 -115 11 0
26 -3 35 -6 13 -5 16 2 16 40 l0 47 83 -3 82 -3 3 -41 c3 -39 4 -40 39 -40
l35 0 -4 133 c-4 143 -10 161 -70 206 -28 21 -112 32 -138 19z m105 -85 c20
-17 28 -35 32 -70 l6 -47 -87 0 -86 0 0 44 c0 82 77 124 135 73z"/>
</g>
</svg>
