<?xml version="1.0" standalone="no"?>
<!DOCTYPE svg PUBLIC "-//W3C//DTD SVG 20010904//EN"
 "http://www.w3.org/TR/2001/REC-SVG-20010904/DTD/svg10.dtd">
<svg version="1.0" xmlns="http://www.w3.org/2000/svg"
 width="840.000000pt" height="720.000000pt" viewBox="0 0 840.000000 720.000000"
 preserveAspectRatio="xMidYMid meet">

<g transform="translate(0.000000,720.000000) scale(0.100000,-0.100000)"
fill="#000000" stroke="none">
<path d="M2655 4823 c-46 -24 -76 -54 -96 -98 -18 -38 -19 -91 -19 -1123 0
-1174 -2 -1121 53 -1180 48 -52 86 -62 227 -62 l130 0 0 935 c0 514 2 935 5
935 3 0 284 -203 625 -451 l620 -451 620 451 c341 248 622 451 625 451 3 0 5
-423 5 -940 l0 -940 100 0 c54 0 121 5 148 10 60 13 118 60 143 114 18 39 19
92 19 1124 0 1174 2 1121 -53 1180 -53 58 -157 79 -230 48 -18 -7 -144 -96
-282 -196 -780 -570 -1085 -790 -1095 -790 -12 0 -392 275 -1163 839 -92 68
-184 132 -204 142 -46 23 -136 25 -178 2z"/>
</g>
</svg>
